<svg xmlns="http://www.w3.org/2000/svg" width="1770" height="370" viewBox="0 0 1770 370" font-family="-apple-system, Segoe UI, sans-serif">
<style>
  .lbl { font-size: 10px; fill: #444; }
  .axl { font-size: 11px; fill: #222; font-weight: 600; }
  .ttl { font-size: 14px; fill: #111; font-weight: 700; }
  .ptl { font-size: 12px; fill: #111; font-weight: 600;          text-anchor: middle; }
</style>
<text class="ttl" x="885" y="22" text-anchor="middle">aidebt: gap = y(ai=0) − y(ai=1) over (pay_rate, born_ai_mult) at multiple tmax</text>
<text class="lbl" x="885" y="40" text-anchor="middle" fill="#666">blue = AI helps · red = AI hurts (CONFIRM thesis) · contour at gap=0 is the regime boundary</text>
<text class="ptl" x="200" y="72">tmax=10</text>
<rect x="60" y="278" width="28" height="22" fill="#fcf9f6" stroke="#fff" stroke-width="0.5"/>
<rect x="60" y="256" width="28" height="22" fill="#fdfcfa" stroke="#fff" stroke-width="0.5"/>
<rect x="60" y="234" width="28" height="22" fill="#fefefe" stroke="#fff" stroke-width="0.5"/>
<rect x="60" y="212" width="28" height="22" fill="#fbfcfe" stroke="#fff" stroke-width="0.5"/>
<rect x="60" y="190" width="28" height="22" fill="#f8fafd" stroke="#fff" stroke-width="0.5"/>
<rect x="60" y="168" width="28" height="22" fill="#f4f8fc" stroke="#fff" stroke-width="0.5"/>
<rect x="60" y="146" width="28" height="22" fill="#f1f6fb" stroke="#fff" stroke-width="0.5"/>
<rect x="60" y="124" width="28" height="22" fill="#eef4fa" stroke="#fff" stroke-width="0.5"/>
<rect x="60" y="102" width="28" height="22" fill="#ebf2fa" stroke="#fff" stroke-width="0.5"/>
<rect x="60" y="80" width="28" height="22" fill="#e8f0f9" stroke="#fff" stroke-width="0.5"/>
<rect x="88" y="278" width="28" height="22" fill="#fcf9f6" stroke="#fff" stroke-width="0.5"/>
<rect x="88" y="256" width="28" height="22" fill="#fdfbf9" stroke="#fff" stroke-width="0.5"/>
<rect x="88" y="234" width="28" height="22" fill="#fefdfc" stroke="#fff" stroke-width="0.5"/>
<rect x="88" y="212" width="28" height="22" fill="#fefefe" stroke="#fff" stroke-width="0.5"/>
<rect x="88" y="190" width="28" height="22" fill="#fcfdfe" stroke="#fff" stroke-width="0.5"/>
<rect x="88" y="168" width="28" height="22" fill="#fafbfd" stroke="#fff" stroke-width="0.5"/>
<rect x="88" y="146" width="28" height="22" fill="#f7fafd" stroke="#fff" stroke-width="0.5"/>
<rect x="88" y="124" width="28" height="22" fill="#f5f8fc" stroke="#fff" stroke-width="0.5"/>
<rect x="88" y="102" width="28" height="22" fill="#f2f7fb" stroke="#fff" stroke-width="0.5"/>
<rect x="88" y="80" width="28" height="22" fill="#f0f5fb" stroke="#fff" stroke-width="0.5"/>
<rect x="116" y="278" width="28" height="22" fill="#fcf9f5" stroke="#fff" stroke-width="0.5"/>
<rect x="116" y="256" width="28" height="22" fill="#fdfaf8" stroke="#fff" stroke-width="0.5"/>
<rect x="116" y="234" width="28" height="22" fill="#fdfbfa" stroke="#fff" stroke-width="0.5"/>
<rect x="116" y="212" width="28" height="22" fill="#fefdfc" stroke="#fff" stroke-width="0.5"/>
<rect x="116" y="190" width="28" height="22" fill="#fefefe" stroke="#fff" stroke-width="0.5"/>
<rect x="116" y="168" width="28" height="22" fill="#fdfefe" stroke="#fff" stroke-width="0.5"/>
<rect x="116" y="146" width="28" height="22" fill="#fbfcfe" stroke="#fff" stroke-width="0.5"/>
<rect x="116" y="124" width="28" height="22" fill="#f9fbfd" stroke="#fff" stroke-width="0.5"/>
<rect x="116" y="102" width="28" height="22" fill="#f7fafd" stroke="#fff" stroke-width="0.5"/>
<rect x="116" y="80" width="28" height="22" fill="#f5f9fc" stroke="#fff" stroke-width="0.5"/>
<rect x="144" y="278" width="28" height="22" fill="#fcf8f5" stroke="#fff" stroke-width="0.5"/>
<rect x="144" y="256" width="28" height="22" fill="#fdfaf7" stroke="#fff" stroke-width="0.5"/>
<rect x="144" y="234" width="28" height="22" fill="#fdfbf9" stroke="#fff" stroke-width="0.5"/>
<rect x="144" y="212" width="28" height="22" fill="#fdfcfa" stroke="#fff" stroke-width="0.5"/>
<rect x="144" y="190" width="28" height="22" fill="#fefdfc" stroke="#fff" stroke-width="0.5"/>
<rect x="144" y="168" width="28" height="22" fill="#fefefe" stroke="#fff" stroke-width="0.5"/>
<rect x="144" y="146" width="28" height="22" fill="#fefefe" stroke="#fff" stroke-width="0.5"/>
<rect x="144" y="124" width="28" height="22" fill="#fcfdfe" stroke="#fff" stroke-width="0.5"/>
<rect x="144" y="102" width="28" height="22" fill="#fbfcfe" stroke="#fff" stroke-width="0.5"/>
<rect x="144" y="80" width="28" height="22" fill="#f9fbfd" stroke="#fff" stroke-width="0.5"/>
<rect x="172" y="278" width="28" height="22" fill="#fcf8f5" stroke="#fff" stroke-width="0.5"/>
<rect x="172" y="256" width="28" height="22" fill="#fcf9f6" stroke="#fff" stroke-width="0.5"/>
<rect x="172" y="234" width="28" height="22" fill="#fdfaf8" stroke="#fff" stroke-width="0.5"/>
<rect x="172" y="212" width="28" height="22" fill="#fdfbf9" stroke="#fff" stroke-width="0.5"/>
<rect x="172" y="190" width="28" height="22" fill="#fefcfb" stroke="#fff" stroke-width="0.5"/>
<rect x="172" y="168" width="28" height="22" fill="#fefdfc" stroke="#fff" stroke-width="0.5"/>
<rect x="172" y="146" width="28" height="22" fill="#fefefd" stroke="#fff" stroke-width="0.5"/>
<rect x="172" y="124" width="28" height="22" fill="#fefefe" stroke="#fff" stroke-width="0.5"/>
<rect x="172" y="102" width="28" height="22" fill="#fdfefe" stroke="#fff" stroke-width="0.5"/>
<rect x="172" y="80" width="28" height="22" fill="#fcfdfe" stroke="#fff" stroke-width="0.5"/>
<rect x="200" y="278" width="28" height="22" fill="#fcf8f5" stroke="#fff" stroke-width="0.5"/>
<rect x="200" y="256" width="28" height="22" fill="#fcf9f6" stroke="#fff" stroke-width="0.5"/>
<rect x="200" y="234" width="28" height="22" fill="#fdfaf7" stroke="#fff" stroke-width="0.5"/>
<rect x="200" y="212" width="28" height="22" fill="#fdfbf8" stroke="#fff" stroke-width="0.5"/>
<rect x="200" y="190" width="28" height="22" fill="#fdfbfa" stroke="#fff" stroke-width="0.5"/>
<rect x="200" y="168" width="28" height="22" fill="#fefcfb" stroke="#fff" stroke-width="0.5"/>
<rect x="200" y="146" width="28" height="22" fill="#fefdfc" stroke="#fff" stroke-width="0.5"/>
<rect x="200" y="124" width="28" height="22" fill="#fefefd" stroke="#fff" stroke-width="0.5"/>
<rect x="200" y="102" width="28" height="22" fill="#fefefe" stroke="#fff" stroke-width="0.5"/>
<rect x="200" y="80" width="28" height="22" fill="#fefefe" stroke="#fff" stroke-width="0.5"/>
<rect x="228" y="278" width="28" height="22" fill="#fcf8f5" stroke="#fff" stroke-width="0.5"/>
<rect x="228" y="256" width="28" height="22" fill="#fcf9f6" stroke="#fff" stroke-width="0.5"/>
<rect x="228" y="234" width="28" height="22" fill="#fdf9f7" stroke="#fff" stroke-width="0.5"/>
<rect x="228" y="212" width="28" height="22" fill="#fdfaf8" stroke="#fff" stroke-width="0.5"/>
<rect x="228" y="190" width="28" height="22" fill="#fdfbf9" stroke="#fff" stroke-width="0.5"/>
<rect x="228" y="168" width="28" height="22" fill="#fdfbfa" stroke="#fff" stroke-width="0.5"/>
<rect x="228" y="146" width="28" height="22" fill="#fefcfb" stroke="#fff" stroke-width="0.5"/>
<rect x="228" y="124" width="28" height="22" fill="#fefdfc" stroke="#fff" stroke-width="0.5"/>
<rect x="228" y="102" width="28" height="22" fill="#fefdfd" stroke="#fff" stroke-width="0.5"/>
<rect x="228" y="80" width="28" height="22" fill="#fefefe" stroke="#fff" stroke-width="0.5"/>
<rect x="256" y="278" width="28" height="22" fill="#fcf8f4" stroke="#fff" stroke-width="0.5"/>
<rect x="256" y="256" width="28" height="22" fill="#fcf9f5" stroke="#fff" stroke-width="0.5"/>
<rect x="256" y="234" width="28" height="22" fill="#fcf9f6" stroke="#fff" stroke-width="0.5"/>
<rect x="256" y="212" width="28" height="22" fill="#fdfaf7" stroke="#fff" stroke-width="0.5"/>
<rect x="256" y="190" width="28" height="22" fill="#fdfaf8" stroke="#fff" stroke-width="0.5"/>
<rect x="256" y="168" width="28" height="22" fill="#fdfbf9" stroke="#fff" stroke-width="0.5"/>
<rect x="256" y="146" width="28" height="22" fill="#fdfcfa" stroke="#fff" stroke-width="0.5"/>
<rect x="256" y="124" width="28" height="22" fill="#fefcfb" stroke="#fff" stroke-width="0.5"/>
<rect x="256" y="102" width="28" height="22" fill="#fefdfc" stroke="#fff" stroke-width="0.5"/>
<rect x="256" y="80" width="28" height="22" fill="#fefdfd" stroke="#fff" stroke-width="0.5"/>
<rect x="284" y="278" width="28" height="22" fill="#fcf8f4" stroke="#fff" stroke-width="0.5"/>
<rect x="284" y="256" width="28" height="22" fill="#fcf8f5" stroke="#fff" stroke-width="0.5"/>
<rect x="284" y="234" width="28" height="22" fill="#fcf9f6" stroke="#fff" stroke-width="0.5"/>
<rect x="284" y="212" width="28" height="22" fill="#fdfaf7" stroke="#fff" stroke-width="0.5"/>
<rect x="284" y="190" width="28" height="22" fill="#fdfaf8" stroke="#fff" stroke-width="0.5"/>
<rect x="284" y="168" width="28" height="22" fill="#fdfbf9" stroke="#fff" stroke-width="0.5"/>
<rect x="284" y="146" width="28" height="22" fill="#fdfbf9" stroke="#fff" stroke-width="0.5"/>
<rect x="284" y="124" width="28" height="22" fill="#fdfcfa" stroke="#fff" stroke-width="0.5"/>
<rect x="284" y="102" width="28" height="22" fill="#fefcfb" stroke="#fff" stroke-width="0.5"/>
<rect x="284" y="80" width="28" height="22" fill="#fefdfc" stroke="#fff" stroke-width="0.5"/>
<rect x="312" y="278" width="28" height="22" fill="#fcf8f4" stroke="#fff" stroke-width="0.5"/>
<rect x="312" y="256" width="28" height="22" fill="#fcf8f5" stroke="#fff" stroke-width="0.5"/>
<rect x="312" y="234" width="28" height="22" fill="#fcf9f6" stroke="#fff" stroke-width="0.5"/>
<rect x="312" y="212" width="28" height="22" fill="#fdf9f7" stroke="#fff" stroke-width="0.5"/>
<rect x="312" y="190" width="28" height="22" fill="#fdfaf7" stroke="#fff" stroke-width="0.5"/>
<rect x="312" y="168" width="28" height="22" fill="#fdfaf8" stroke="#fff" stroke-width="0.5"/>
<rect x="312" y="146" width="28" height="22" fill="#fdfbf9" stroke="#fff" stroke-width="0.5"/>
<rect x="312" y="124" width="28" height="22" fill="#fdfbfa" stroke="#fff" stroke-width="0.5"/>
<rect x="312" y="102" width="28" height="22" fill="#fdfcfa" stroke="#fff" stroke-width="0.5"/>
<rect x="312" y="80" width="28" height="22" fill="#fefcfb" stroke="#fff" stroke-width="0.5"/>
<text class="lbl" x="200" y="320" text-anchor="middle">pay_rate ∈ [0, 1]</text>
<text class="axl" x="25" y="190" text-anchor="middle" transform="rotate(-90 25 190)">born_ai_mult ∈ [0, 5]</text>
<text class="ptl" x="550" y="72">tmax=20</text>
<rect x="410" y="278" width="28" height="22" fill="#f8ede4" stroke="#fff" stroke-width="0.5"/>
<rect x="410" y="256" width="28" height="22" fill="#fefefd" stroke="#fff" stroke-width="0.5"/>
<rect x="410" y="234" width="28" height="22" fill="#ebf2fa" stroke="#fff" stroke-width="0.5"/>
<rect x="410" y="212" width="28" height="22" fill="#d9e6f5" stroke="#fff" stroke-width="0.5"/>
<rect x="410" y="190" width="28" height="22" fill="#ccdef2" stroke="#fff" stroke-width="0.5"/>
<rect x="410" y="168" width="28" height="22" fill="#c2d7ef" stroke="#fff" stroke-width="0.5"/>
<rect x="410" y="146" width="28" height="22" fill="#bad2ed" stroke="#fff" stroke-width="0.5"/>
<rect x="410" y="124" width="28" height="22" fill="#b3cdec" stroke="#fff" stroke-width="0.5"/>
<rect x="410" y="102" width="28" height="22" fill="#adcaea" stroke="#fff" stroke-width="0.5"/>
<rect x="410" y="80" width="28" height="22" fill="#a8c7e9" stroke="#fff" stroke-width="0.5"/>
<rect x="438" y="278" width="28" height="22" fill="#f4e4d6" stroke="#fff" stroke-width="0.5"/>
<rect x="438" y="256" width="28" height="22" fill="#f9efe7" stroke="#fff" stroke-width="0.5"/>
<rect x="438" y="234" width="28" height="22" fill="#fcf8f5" stroke="#fff" stroke-width="0.5"/>
<rect x="438" y="212" width="28" height="22" fill="#fcfdfe" stroke="#fff" stroke-width="0.5"/>
<rect x="438" y="190" width="28" height="22" fill="#f1f6fb" stroke="#fff" stroke-width="0.5"/>
<rect x="438" y="168" width="28" height="22" fill="#e7f0f9" stroke="#fff" stroke-width="0.5"/>
<rect x="438" y="146" width="28" height="22" fill="#dfeaf7" stroke="#fff" stroke-width="0.5"/>
<rect x="438" y="124" width="28" height="22" fill="#d8e5f5" stroke="#fff" stroke-width="0.5"/>
<rect x="438" y="102" width="28" height="22" fill="#d1e1f3" stroke="#fff" stroke-width="0.5"/>
<rect x="438" y="80" width="28" height="22" fill="#cbddf2" stroke="#fff" stroke-width="0.5"/>
<rect x="466" y="278" width="28" height="22" fill="#f3e0cf" stroke="#fff" stroke-width="0.5"/>
<rect x="466" y="256" width="28" height="22" fill="#f6e7db" stroke="#fff" stroke-width="0.5"/>
<rect x="466" y="234" width="28" height="22" fill="#f8eee6" stroke="#fff" stroke-width="0.5"/>
<rect x="466" y="212" width="28" height="22" fill="#fbf5ef" stroke="#fff" stroke-width="0.5"/>
<rect x="466" y="190" width="28" height="22" fill="#fdfaf8" stroke="#fff" stroke-width="0.5"/>
<rect x="466" y="168" width="28" height="22" fill="#fefefe" stroke="#fff" stroke-width="0.5"/>
<rect x="466" y="146" width="28" height="22" fill="#f7fafd" stroke="#fff" stroke-width="0.5"/>
<rect x="466" y="124" width="28" height="22" fill="#f1f6fb" stroke="#fff" stroke-width="0.5"/>
<rect x="466" y="102" width="28" height="22" fill="#ebf2fa" stroke="#fff" stroke-width="0.5"/>
<rect x="466" y="80" width="28" height="22" fill="#e6eef8" stroke="#fff" stroke-width="0.5"/>
<rect x="494" y="278" width="28" height="22" fill="#f2ddcb" stroke="#fff" stroke-width="0.5"/>
<rect x="494" y="256" width="28" height="22" fill="#f4e3d4" stroke="#fff" stroke-width="0.5"/>
<rect x="494" y="234" width="28" height="22" fill="#f6e9dd" stroke="#fff" stroke-width="0.5"/>
<rect x="494" y="212" width="28" height="22" fill="#f8eee4" stroke="#fff" stroke-width="0.5"/>
<rect x="494" y="190" width="28" height="22" fill="#faf2eb" stroke="#fff" stroke-width="0.5"/>
<rect x="494" y="168" width="28" height="22" fill="#fbf6f2" stroke="#fff" stroke-width="0.5"/>
<rect x="494" y="146" width="28" height="22" fill="#fdfaf8" stroke="#fff" stroke-width="0.5"/>
<rect x="494" y="124" width="28" height="22" fill="#fefefd" stroke="#fff" stroke-width="0.5"/>
<rect x="494" y="102" width="28" height="22" fill="#fbfcfe" stroke="#fff" stroke-width="0.5"/>
<rect x="494" y="80" width="28" height="22" fill="#f6f9fc" stroke="#fff" stroke-width="0.5"/>
<rect x="522" y="278" width="28" height="22" fill="#f1dbc8" stroke="#fff" stroke-width="0.5"/>
<rect x="522" y="256" width="28" height="22" fill="#f3e0d0" stroke="#fff" stroke-width="0.5"/>
<rect x="522" y="234" width="28" height="22" fill="#f5e5d7" stroke="#fff" stroke-width="0.5"/>
<rect x="522" y="212" width="28" height="22" fill="#f6e9de" stroke="#fff" stroke-width="0.5"/>
<rect x="522" y="190" width="28" height="22" fill="#f8ede4" stroke="#fff" stroke-width="0.5"/>
<rect x="522" y="168" width="28" height="22" fill="#f9f1e9" stroke="#fff" stroke-width="0.5"/>
<rect x="522" y="146" width="28" height="22" fill="#faf4ee" stroke="#fff" stroke-width="0.5"/>
<rect x="522" y="124" width="28" height="22" fill="#fcf7f3" stroke="#fff" stroke-width="0.5"/>
<rect x="522" y="102" width="28" height="22" fill="#fdfaf7" stroke="#fff" stroke-width="0.5"/>
<rect x="522" y="80" width="28" height="22" fill="#fefdfc" stroke="#fff" stroke-width="0.5"/>
<rect x="550" y="278" width="28" height="22" fill="#f1dac7" stroke="#fff" stroke-width="0.5"/>
<rect x="550" y="256" width="28" height="22" fill="#f2dfcd" stroke="#fff" stroke-width="0.5"/>
<rect x="550" y="234" width="28" height="22" fill="#f4e2d3" stroke="#fff" stroke-width="0.5"/>
<rect x="550" y="212" width="28" height="22" fill="#f5e6d9" stroke="#fff" stroke-width="0.5"/>
<rect x="550" y="190" width="28" height="22" fill="#f6e9de" stroke="#fff" stroke-width="0.5"/>
<rect x="550" y="168" width="28" height="22" fill="#f8ede3" stroke="#fff" stroke-width="0.5"/>
<rect x="550" y="146" width="28" height="22" fill="#f9f0e8" stroke="#fff" stroke-width="0.5"/>
<rect x="550" y="124" width="28" height="22" fill="#faf2ec" stroke="#fff" stroke-width="0.5"/>
<rect x="550" y="102" width="28" height="22" fill="#fbf5f0" stroke="#fff" stroke-width="0.5"/>
<rect x="550" y="80" width="28" height="22" fill="#fcf7f4" stroke="#fff" stroke-width="0.5"/>
<rect x="578" y="278" width="28" height="22" fill="#f0dac6" stroke="#fff" stroke-width="0.5"/>
<rect x="578" y="256" width="28" height="22" fill="#f2ddcb" stroke="#fff" stroke-width="0.5"/>
<rect x="578" y="234" width="28" height="22" fill="#f3e1d0" stroke="#fff" stroke-width="0.5"/>
<rect x="578" y="212" width="28" height="22" fill="#f4e4d5" stroke="#fff" stroke-width="0.5"/>
<rect x="578" y="190" width="28" height="22" fill="#f5e7da" stroke="#fff" stroke-width="0.5"/>
<rect x="578" y="168" width="28" height="22" fill="#f6eade" stroke="#fff" stroke-width="0.5"/>
<rect x="578" y="146" width="28" height="22" fill="#f8ece3" stroke="#fff" stroke-width="0.5"/>
<rect x="578" y="124" width="28" height="22" fill="#f8efe6" stroke="#fff" stroke-width="0.5"/>
<rect x="578" y="102" width="28" height="22" fill="#f9f1ea" stroke="#fff" stroke-width="0.5"/>
<rect x="578" y="80" width="28" height="22" fill="#faf4ee" stroke="#fff" stroke-width="0.5"/>
<rect x="606" y="278" width="28" height="22" fill="#f0d9c5" stroke="#fff" stroke-width="0.5"/>
<rect x="606" y="256" width="28" height="22" fill="#f1dcca" stroke="#fff" stroke-width="0.5"/>
<rect x="606" y="234" width="28" height="22" fill="#f2dfce" stroke="#fff" stroke-width="0.5"/>
<rect x="606" y="212" width="28" height="22" fill="#f4e2d3" stroke="#fff" stroke-width="0.5"/>
<rect x="606" y="190" width="28" height="22" fill="#f5e5d7" stroke="#fff" stroke-width="0.5"/>
<rect x="606" y="168" width="28" height="22" fill="#f6e7db" stroke="#fff" stroke-width="0.5"/>
<rect x="606" y="146" width="28" height="22" fill="#f7eadf" stroke="#fff" stroke-width="0.5"/>
<rect x="606" y="124" width="28" height="22" fill="#f7ece2" stroke="#fff" stroke-width="0.5"/>
<rect x="606" y="102" width="28" height="22" fill="#f8eee6" stroke="#fff" stroke-width="0.5"/>
<rect x="606" y="80" width="28" height="22" fill="#f9f0e9" stroke="#fff" stroke-width="0.5"/>
<rect x="634" y="278" width="28" height="22" fill="#f0d8c4" stroke="#fff" stroke-width="0.5"/>
<rect x="634" y="256" width="28" height="22" fill="#f1dbc8" stroke="#fff" stroke-width="0.5"/>
<rect x="634" y="234" width="28" height="22" fill="#f2decd" stroke="#fff" stroke-width="0.5"/>
<rect x="634" y="212" width="28" height="22" fill="#f3e1d1" stroke="#fff" stroke-width="0.5"/>
<rect x="634" y="190" width="28" height="22" fill="#f4e3d4" stroke="#fff" stroke-width="0.5"/>
<rect x="634" y="168" width="28" height="22" fill="#f5e6d8" stroke="#fff" stroke-width="0.5"/>
<rect x="634" y="146" width="28" height="22" fill="#f6e8db" stroke="#fff" stroke-width="0.5"/>
<rect x="634" y="124" width="28" height="22" fill="#f7eadf" stroke="#fff" stroke-width="0.5"/>
<rect x="634" y="102" width="28" height="22" fill="#f7ece2" stroke="#fff" stroke-width="0.5"/>
<rect x="634" y="80" width="28" height="22" fill="#f8eee5" stroke="#fff" stroke-width="0.5"/>
<rect x="662" y="278" width="28" height="22" fill="#f0d8c3" stroke="#fff" stroke-width="0.5"/>
<rect x="662" y="256" width="28" height="22" fill="#f1dbc7" stroke="#fff" stroke-width="0.5"/>
<rect x="662" y="234" width="28" height="22" fill="#f2ddcb" stroke="#fff" stroke-width="0.5"/>
<rect x="662" y="212" width="28" height="22" fill="#f3e0cf" stroke="#fff" stroke-width="0.5"/>
<rect x="662" y="190" width="28" height="22" fill="#f3e2d2" stroke="#fff" stroke-width="0.5"/>
<rect x="662" y="168" width="28" height="22" fill="#f4e4d6" stroke="#fff" stroke-width="0.5"/>
<rect x="662" y="146" width="28" height="22" fill="#f5e6d9" stroke="#fff" stroke-width="0.5"/>
<rect x="662" y="124" width="28" height="22" fill="#f6e8dc" stroke="#fff" stroke-width="0.5"/>
<rect x="662" y="102" width="28" height="22" fill="#f7eadf" stroke="#fff" stroke-width="0.5"/>
<rect x="662" y="80" width="28" height="22" fill="#f7ece2" stroke="#fff" stroke-width="0.5"/>
<text class="lbl" x="550" y="320" text-anchor="middle">pay_rate ∈ [0, 1]</text>
<text class="ptl" x="900" y="72">tmax=30</text>
<rect x="760" y="278" width="28" height="22" fill="#fbf6f1" stroke="#fff" stroke-width="0.5"/>
<rect x="760" y="256" width="28" height="22" fill="#dfeaf7" stroke="#fff" stroke-width="0.5"/>
<rect x="760" y="234" width="28" height="22" fill="#c6daf0" stroke="#fff" stroke-width="0.5"/>
<rect x="760" y="212" width="28" height="22" fill="#b6cfec" stroke="#fff" stroke-width="0.5"/>
<rect x="760" y="190" width="28" height="22" fill="#abc8ea" stroke="#fff" stroke-width="0.5"/>
<rect x="760" y="168" width="28" height="22" fill="#a2c2e7" stroke="#fff" stroke-width="0.5"/>
<rect x="760" y="146" width="28" height="22" fill="#9bbee6" stroke="#fff" stroke-width="0.5"/>
<rect x="760" y="124" width="28" height="22" fill="#96bae4" stroke="#fff" stroke-width="0.5"/>
<rect x="760" y="102" width="28" height="22" fill="#91b7e3" stroke="#fff" stroke-width="0.5"/>
<rect x="760" y="80" width="28" height="22" fill="#8db5e2" stroke="#fff" stroke-width="0.5"/>
<rect x="788" y="278" width="28" height="22" fill="#eccdb3" stroke="#fff" stroke-width="0.5"/>
<rect x="788" y="256" width="28" height="22" fill="#f8eee6" stroke="#fff" stroke-width="0.5"/>
<rect x="788" y="234" width="28" height="22" fill="#ecf3fa" stroke="#fff" stroke-width="0.5"/>
<rect x="788" y="212" width="28" height="22" fill="#cedff2" stroke="#fff" stroke-width="0.5"/>
<rect x="788" y="190" width="28" height="22" fill="#b7d0ed" stroke="#fff" stroke-width="0.5"/>
<rect x="788" y="168" width="28" height="22" fill="#a5c4e8" stroke="#fff" stroke-width="0.5"/>
<rect x="788" y="146" width="28" height="22" fill="#97bbe5" stroke="#fff" stroke-width="0.5"/>
<rect x="788" y="124" width="28" height="22" fill="#8bb3e2" stroke="#fff" stroke-width="0.5"/>
<rect x="788" y="102" width="28" height="22" fill="#81addf" stroke="#fff" stroke-width="0.5"/>
<rect x="788" y="80" width="28" height="22" fill="#78a7dd" stroke="#fff" stroke-width="0.5"/>
<rect x="816" y="278" width="28" height="22" fill="#f1dbc8" stroke="#fff" stroke-width="0.5"/>
<rect x="816" y="256" width="28" height="22" fill="#f2dfce" stroke="#fff" stroke-width="0.5"/>
<rect x="816" y="234" width="28" height="22" fill="#f4e2d3" stroke="#fff" stroke-width="0.5"/>
<rect x="816" y="212" width="28" height="22" fill="#fbf6f1" stroke="#fff" stroke-width="0.5"/>
<rect x="816" y="190" width="28" height="22" fill="#f3f7fc" stroke="#fff" stroke-width="0.5"/>
<rect x="816" y="168" width="28" height="22" fill="#e0eaf7" stroke="#fff" stroke-width="0.5"/>
<rect x="816" y="146" width="28" height="22" fill="#cfe0f3" stroke="#fff" stroke-width="0.5"/>
<rect x="816" y="124" width="28" height="22" fill="#c1d7ef" stroke="#fff" stroke-width="0.5"/>
<rect x="816" y="102" width="28" height="22" fill="#b5cfec" stroke="#fff" stroke-width="0.5"/>
<rect x="816" y="80" width="28" height="22" fill="#abc8ea" stroke="#fff" stroke-width="0.5"/>
<rect x="844" y="278" width="28" height="22" fill="#f3e1d1" stroke="#fff" stroke-width="0.5"/>
<rect x="844" y="256" width="28" height="22" fill="#f4e4d6" stroke="#fff" stroke-width="0.5"/>
<rect x="844" y="234" width="28" height="22" fill="#f5e7da" stroke="#fff" stroke-width="0.5"/>
<rect x="844" y="212" width="28" height="22" fill="#f6e9de" stroke="#fff" stroke-width="0.5"/>
<rect x="844" y="190" width="28" height="22" fill="#f7ebe1" stroke="#fff" stroke-width="0.5"/>
<rect x="844" y="168" width="28" height="22" fill="#fcf8f5" stroke="#fff" stroke-width="0.5"/>
<rect x="844" y="146" width="28" height="22" fill="#f7fafd" stroke="#fff" stroke-width="0.5"/>
<rect x="844" y="124" width="28" height="22" fill="#e8f0f9" stroke="#fff" stroke-width="0.5"/>
<rect x="844" y="102" width="28" height="22" fill="#dbe7f6" stroke="#fff" stroke-width="0.5"/>
<rect x="844" y="80" width="28" height="22" fill="#d0e0f3" stroke="#fff" stroke-width="0.5"/>
<rect x="872" y="278" width="28" height="22" fill="#f5e5d7" stroke="#fff" stroke-width="0.5"/>
<rect x="872" y="256" width="28" height="22" fill="#f6e7db" stroke="#fff" stroke-width="0.5"/>
<rect x="872" y="234" width="28" height="22" fill="#f6e9de" stroke="#fff" stroke-width="0.5"/>
<rect x="872" y="212" width="28" height="22" fill="#f7ebe1" stroke="#fff" stroke-width="0.5"/>
<rect x="872" y="190" width="28" height="22" fill="#f8ede4" stroke="#fff" stroke-width="0.5"/>
<rect x="872" y="168" width="28" height="22" fill="#f8efe6" stroke="#fff" stroke-width="0.5"/>
<rect x="872" y="146" width="28" height="22" fill="#f9f0e8" stroke="#fff" stroke-width="0.5"/>
<rect x="872" y="124" width="28" height="22" fill="#fdfaf7" stroke="#fff" stroke-width="0.5"/>
<rect x="872" y="102" width="28" height="22" fill="#f9fbfd" stroke="#fff" stroke-width="0.5"/>
<rect x="872" y="80" width="28" height="22" fill="#edf3fa" stroke="#fff" stroke-width="0.5"/>
<rect x="900" y="278" width="28" height="22" fill="#f5e7da" stroke="#fff" stroke-width="0.5"/>
<rect x="900" y="256" width="28" height="22" fill="#f6e9dd" stroke="#fff" stroke-width="0.5"/>
<rect x="900" y="234" width="28" height="22" fill="#f7ebe0" stroke="#fff" stroke-width="0.5"/>
<rect x="900" y="212" width="28" height="22" fill="#f8ede3" stroke="#fff" stroke-width="0.5"/>
<rect x="900" y="190" width="28" height="22" fill="#f8eee5" stroke="#fff" stroke-width="0.5"/>
<rect x="900" y="168" width="28" height="22" fill="#f9f0e8" stroke="#fff" stroke-width="0.5"/>
<rect x="900" y="146" width="28" height="22" fill="#f9f1ea" stroke="#fff" stroke-width="0.5"/>
<rect x="900" y="124" width="28" height="22" fill="#faf2eb" stroke="#fff" stroke-width="0.5"/>
<rect x="900" y="102" width="28" height="22" fill="#faf3ed" stroke="#fff" stroke-width="0.5"/>
<rect x="900" y="80" width="28" height="22" fill="#fdfbf8" stroke="#fff" stroke-width="0.5"/>
<rect x="928" y="278" width="28" height="22" fill="#f6e8dc" stroke="#fff" stroke-width="0.5"/>
<rect x="928" y="256" width="28" height="22" fill="#f7eadf" stroke="#fff" stroke-width="0.5"/>
<rect x="928" y="234" width="28" height="22" fill="#f7ece2" stroke="#fff" stroke-width="0.5"/>
<rect x="928" y="212" width="28" height="22" fill="#f8ede4" stroke="#fff" stroke-width="0.5"/>
<rect x="928" y="190" width="28" height="22" fill="#f8efe6" stroke="#fff" stroke-width="0.5"/>
<rect x="928" y="168" width="28" height="22" fill="#f9f0e8" stroke="#fff" stroke-width="0.5"/>
<rect x="928" y="146" width="28" height="22" fill="#f9f1ea" stroke="#fff" stroke-width="0.5"/>
<rect x="928" y="124" width="28" height="22" fill="#faf2ec" stroke="#fff" stroke-width="0.5"/>
<rect x="928" y="102" width="28" height="22" fill="#faf3ee" stroke="#fff" stroke-width="0.5"/>
<rect x="928" y="80" width="28" height="22" fill="#fbf4ef" stroke="#fff" stroke-width="0.5"/>
<rect x="956" y="278" width="28" height="22" fill="#f6e9de" stroke="#fff" stroke-width="0.5"/>
<rect x="956" y="256" width="28" height="22" fill="#f7ebe0" stroke="#fff" stroke-width="0.5"/>
<rect x="956" y="234" width="28" height="22" fill="#f8ede3" stroke="#fff" stroke-width="0.5"/>
<rect x="956" y="212" width="28" height="22" fill="#f8eee5" stroke="#fff" stroke-width="0.5"/>
<rect x="956" y="190" width="28" height="22" fill="#f9efe7" stroke="#fff" stroke-width="0.5"/>
<rect x="956" y="168" width="28" height="22" fill="#f9f1e9" stroke="#fff" stroke-width="0.5"/>
<rect x="956" y="146" width="28" height="22" fill="#faf2eb" stroke="#fff" stroke-width="0.5"/>
<rect x="956" y="124" width="28" height="22" fill="#faf3ec" stroke="#fff" stroke-width="0.5"/>
<rect x="956" y="102" width="28" height="22" fill="#faf4ee" stroke="#fff" stroke-width="0.5"/>
<rect x="956" y="80" width="28" height="22" fill="#fbf5ef" stroke="#fff" stroke-width="0.5"/>
<rect x="984" y="278" width="28" height="22" fill="#f7eadf" stroke="#fff" stroke-width="0.5"/>
<rect x="984" y="256" width="28" height="22" fill="#f7ece1" stroke="#fff" stroke-width="0.5"/>
<rect x="984" y="234" width="28" height="22" fill="#f8ede4" stroke="#fff" stroke-width="0.5"/>
<rect x="984" y="212" width="28" height="22" fill="#f8eee6" stroke="#fff" stroke-width="0.5"/>
<rect x="984" y="190" width="28" height="22" fill="#f9f0e8" stroke="#fff" stroke-width="0.5"/>
<rect x="984" y="168" width="28" height="22" fill="#f9f1e9" stroke="#fff" stroke-width="0.5"/>
<rect x="984" y="146" width="28" height="22" fill="#faf2eb" stroke="#fff" stroke-width="0.5"/>
<rect x="984" y="124" width="28" height="22" fill="#faf3ec" stroke="#fff" stroke-width="0.5"/>
<rect x="984" y="102" width="28" height="22" fill="#faf4ee" stroke="#fff" stroke-width="0.5"/>
<rect x="984" y="80" width="28" height="22" fill="#fbf5ef" stroke="#fff" stroke-width="0.5"/>
<rect x="1012" y="278" width="28" height="22" fill="#f7ebe0" stroke="#fff" stroke-width="0.5"/>
<rect x="1012" y="256" width="28" height="22" fill="#f7ece2" stroke="#fff" stroke-width="0.5"/>
<rect x="1012" y="234" width="28" height="22" fill="#f8ede4" stroke="#fff" stroke-width="0.5"/>
<rect x="1012" y="212" width="28" height="22" fill="#f8efe6" stroke="#fff" stroke-width="0.5"/>
<rect x="1012" y="190" width="28" height="22" fill="#f9f0e8" stroke="#fff" stroke-width="0.5"/>
<rect x="1012" y="168" width="28" height="22" fill="#f9f1e9" stroke="#fff" stroke-width="0.5"/>
<rect x="1012" y="146" width="28" height="22" fill="#faf2eb" stroke="#fff" stroke-width="0.5"/>
<rect x="1012" y="124" width="28" height="22" fill="#faf3ec" stroke="#fff" stroke-width="0.5"/>
<rect x="1012" y="102" width="28" height="22" fill="#faf4ee" stroke="#fff" stroke-width="0.5"/>
<rect x="1012" y="80" width="28" height="22" fill="#fbf4ef" stroke="#fff" stroke-width="0.5"/>
<text class="lbl" x="900" y="320" text-anchor="middle">pay_rate ∈ [0, 1]</text>
<text class="ptl" x="1250" y="72">tmax=50</text>
<rect x="1110" y="278" width="28" height="22" fill="#faf2ec" stroke="#fff" stroke-width="0.5"/>
<rect x="1110" y="256" width="28" height="22" fill="#e8f0f9" stroke="#fff" stroke-width="0.5"/>
<rect x="1110" y="234" width="28" height="22" fill="#d2e1f3" stroke="#fff" stroke-width="0.5"/>
<rect x="1110" y="212" width="28" height="22" fill="#c4d8f0" stroke="#fff" stroke-width="0.5"/>
<rect x="1110" y="190" width="28" height="22" fill="#bad2ed" stroke="#fff" stroke-width="0.5"/>
<rect x="1110" y="168" width="28" height="22" fill="#b2cdeb" stroke="#fff" stroke-width="0.5"/>
<rect x="1110" y="146" width="28" height="22" fill="#adc9ea" stroke="#fff" stroke-width="0.5"/>
<rect x="1110" y="124" width="28" height="22" fill="#a8c6e9" stroke="#fff" stroke-width="0.5"/>
<rect x="1110" y="102" width="28" height="22" fill="#a4c4e8" stroke="#fff" stroke-width="0.5"/>
<rect x="1110" y="80" width="28" height="22" fill="#a0c1e7" stroke="#fff" stroke-width="0.5"/>
<rect x="1138" y="278" width="28" height="22" fill="#f0f5fb" stroke="#fff" stroke-width="0.5"/>
<rect x="1138" y="256" width="28" height="22" fill="#e7eff9" stroke="#fff" stroke-width="0.5"/>
<rect x="1138" y="234" width="28" height="22" fill="#dae7f5" stroke="#fff" stroke-width="0.5"/>
<rect x="1138" y="212" width="28" height="22" fill="#a8c7e9" stroke="#fff" stroke-width="0.5"/>
<rect x="1138" y="190" width="28" height="22" fill="#87b1e1" stroke="#fff" stroke-width="0.5"/>
<rect x="1138" y="168" width="28" height="22" fill="#6ea1da" stroke="#fff" stroke-width="0.5"/>
<rect x="1138" y="146" width="28" height="22" fill="#5b95d6" stroke="#fff" stroke-width="0.5"/>
<rect x="1138" y="124" width="28" height="22" fill="#4d8bd2" stroke="#fff" stroke-width="0.5"/>
<rect x="1138" y="102" width="28" height="22" fill="#4183cf" stroke="#fff" stroke-width="0.5"/>
<rect x="1138" y="80" width="28" height="22" fill="#377dcd" stroke="#fff" stroke-width="0.5"/>
<rect x="1166" y="278" width="28" height="22" fill="#f6f9fc" stroke="#fff" stroke-width="0.5"/>
<rect x="1166" y="256" width="28" height="22" fill="#edf3fa" stroke="#fff" stroke-width="0.5"/>
<rect x="1166" y="234" width="28" height="22" fill="#e6eff8" stroke="#fff" stroke-width="0.5"/>
<rect x="1166" y="212" width="28" height="22" fill="#e1ecf7" stroke="#fff" stroke-width="0.5"/>
<rect x="1166" y="190" width="28" height="22" fill="#dee9f6" stroke="#fff" stroke-width="0.5"/>
<rect x="1166" y="168" width="28" height="22" fill="#dae7f5" stroke="#fff" stroke-width="0.5"/>
<rect x="1166" y="146" width="28" height="22" fill="#d8e5f5" stroke="#fff" stroke-width="0.5"/>
<rect x="1166" y="124" width="28" height="22" fill="#d6e4f4" stroke="#fff" stroke-width="0.5"/>
<rect x="1166" y="102" width="28" height="22" fill="#d4e3f4" stroke="#fff" stroke-width="0.5"/>
<rect x="1166" y="80" width="28" height="22" fill="#d2e2f3" stroke="#fff" stroke-width="0.5"/>
<rect x="1194" y="278" width="28" height="22" fill="#f8fbfd" stroke="#fff" stroke-width="0.5"/>
<rect x="1194" y="256" width="28" height="22" fill="#f1f6fb" stroke="#fff" stroke-width="0.5"/>
<rect x="1194" y="234" width="28" height="22" fill="#ebf2fa" stroke="#fff" stroke-width="0.5"/>
<rect x="1194" y="212" width="28" height="22" fill="#e6eff8" stroke="#fff" stroke-width="0.5"/>
<rect x="1194" y="190" width="28" height="22" fill="#e2ecf7" stroke="#fff" stroke-width="0.5"/>
<rect x="1194" y="168" width="28" height="22" fill="#dfeaf7" stroke="#fff" stroke-width="0.5"/>
<rect x="1194" y="146" width="28" height="22" fill="#dce8f6" stroke="#fff" stroke-width="0.5"/>
<rect x="1194" y="124" width="28" height="22" fill="#d9e6f5" stroke="#fff" stroke-width="0.5"/>
<rect x="1194" y="102" width="28" height="22" fill="#d7e5f5" stroke="#fff" stroke-width="0.5"/>
<rect x="1194" y="80" width="28" height="22" fill="#d5e4f4" stroke="#fff" stroke-width="0.5"/>
<rect x="1222" y="278" width="28" height="22" fill="#fafbfd" stroke="#fff" stroke-width="0.5"/>
<rect x="1222" y="256" width="28" height="22" fill="#f4f7fc" stroke="#fff" stroke-width="0.5"/>
<rect x="1222" y="234" width="28" height="22" fill="#eef4fa" stroke="#fff" stroke-width="0.5"/>
<rect x="1222" y="212" width="28" height="22" fill="#eaf1f9" stroke="#fff" stroke-width="0.5"/>
<rect x="1222" y="190" width="28" height="22" fill="#e6eff8" stroke="#fff" stroke-width="0.5"/>
<rect x="1222" y="168" width="28" height="22" fill="#e3edf8" stroke="#fff" stroke-width="0.5"/>
<rect x="1222" y="146" width="28" height="22" fill="#e0ebf7" stroke="#fff" stroke-width="0.5"/>
<rect x="1222" y="124" width="28" height="22" fill="#dde9f6" stroke="#fff" stroke-width="0.5"/>
<rect x="1222" y="102" width="28" height="22" fill="#dbe8f6" stroke="#fff" stroke-width="0.5"/>
<rect x="1222" y="80" width="28" height="22" fill="#d9e6f5" stroke="#fff" stroke-width="0.5"/>
<rect x="1250" y="278" width="28" height="22" fill="#fbfcfe" stroke="#fff" stroke-width="0.5"/>
<rect x="1250" y="256" width="28" height="22" fill="#f5f9fc" stroke="#fff" stroke-width="0.5"/>
<rect x="1250" y="234" width="28" height="22" fill="#f1f6fb" stroke="#fff" stroke-width="0.5"/>
<rect x="1250" y="212" width="28" height="22" fill="#edf3fa" stroke="#fff" stroke-width="0.5"/>
<rect x="1250" y="190" width="28" height="22" fill="#e9f1f9" stroke="#fff" stroke-width="0.5"/>
<rect x="1250" y="168" width="28" height="22" fill="#e6eff8" stroke="#fff" stroke-width="0.5"/>
<rect x="1250" y="146" width="28" height="22" fill="#e3edf8" stroke="#fff" stroke-width="0.5"/>
<rect x="1250" y="124" width="28" height="22" fill="#e1ebf7" stroke="#fff" stroke-width="0.5"/>
<rect x="1250" y="102" width="28" height="22" fill="#dfeaf7" stroke="#fff" stroke-width="0.5"/>
<rect x="1250" y="80" width="28" height="22" fill="#dde8f6" stroke="#fff" stroke-width="0.5"/>
<rect x="1278" y="278" width="28" height="22" fill="#fbfcfe" stroke="#fff" stroke-width="0.5"/>
<rect x="1278" y="256" width="28" height="22" fill="#f7f9fd" stroke="#fff" stroke-width="0.5"/>
<rect x="1278" y="234" width="28" height="22" fill="#f3f7fc" stroke="#fff" stroke-width="0.5"/>
<rect x="1278" y="212" width="28" height="22" fill="#eff4fb" stroke="#fff" stroke-width="0.5"/>
<rect x="1278" y="190" width="28" height="22" fill="#ecf2fa" stroke="#fff" stroke-width="0.5"/>
<rect x="1278" y="168" width="28" height="22" fill="#e9f0f9" stroke="#fff" stroke-width="0.5"/>
<rect x="1278" y="146" width="28" height="22" fill="#e6eff8" stroke="#fff" stroke-width="0.5"/>
<rect x="1278" y="124" width="28" height="22" fill="#e4edf8" stroke="#fff" stroke-width="0.5"/>
<rect x="1278" y="102" width="28" height="22" fill="#e2ecf7" stroke="#fff" stroke-width="0.5"/>
<rect x="1278" y="80" width="28" height="22" fill="#e0eaf7" stroke="#fff" stroke-width="0.5"/>
<rect x="1306" y="278" width="28" height="22" fill="#fcfdfe" stroke="#fff" stroke-width="0.5"/>
<rect x="1306" y="256" width="28" height="22" fill="#f8fafd" stroke="#fff" stroke-width="0.5"/>
<rect x="1306" y="234" width="28" height="22" fill="#f4f8fc" stroke="#fff" stroke-width="0.5"/>
<rect x="1306" y="212" width="28" height="22" fill="#f1f6fb" stroke="#fff" stroke-width="0.5"/>
<rect x="1306" y="190" width="28" height="22" fill="#eef4fa" stroke="#fff" stroke-width="0.5"/>
<rect x="1306" y="168" width="28" height="22" fill="#ebf2fa" stroke="#fff" stroke-width="0.5"/>
<rect x="1306" y="146" width="28" height="22" fill="#e8f0f9" stroke="#fff" stroke-width="0.5"/>
<rect x="1306" y="124" width="28" height="22" fill="#e6eff8" stroke="#fff" stroke-width="0.5"/>
<rect x="1306" y="102" width="28" height="22" fill="#e4edf8" stroke="#fff" stroke-width="0.5"/>
<rect x="1306" y="80" width="28" height="22" fill="#e2ecf7" stroke="#fff" stroke-width="0.5"/>
<rect x="1334" y="278" width="28" height="22" fill="#fcfdfe" stroke="#fff" stroke-width="0.5"/>
<rect x="1334" y="256" width="28" height="22" fill="#f8fbfd" stroke="#fff" stroke-width="0.5"/>
<rect x="1334" y="234" width="28" height="22" fill="#f5f8fc" stroke="#fff" stroke-width="0.5"/>
<rect x="1334" y="212" width="28" height="22" fill="#f2f6fb" stroke="#fff" stroke-width="0.5"/>
<rect x="1334" y="190" width="28" height="22" fill="#eff5fb" stroke="#fff" stroke-width="0.5"/>
<rect x="1334" y="168" width="28" height="22" fill="#edf3fa" stroke="#fff" stroke-width="0.5"/>
<rect x="1334" y="146" width="28" height="22" fill="#eaf1f9" stroke="#fff" stroke-width="0.5"/>
<rect x="1334" y="124" width="28" height="22" fill="#e8f0f9" stroke="#fff" stroke-width="0.5"/>
<rect x="1334" y="102" width="28" height="22" fill="#e6eff8" stroke="#fff" stroke-width="0.5"/>
<rect x="1334" y="80" width="28" height="22" fill="#e4edf8" stroke="#fff" stroke-width="0.5"/>
<rect x="1362" y="278" width="28" height="22" fill="#fcfdfe" stroke="#fff" stroke-width="0.5"/>
<rect x="1362" y="256" width="28" height="22" fill="#f9fbfd" stroke="#fff" stroke-width="0.5"/>
<rect x="1362" y="234" width="28" height="22" fill="#f6f9fc" stroke="#fff" stroke-width="0.5"/>
<rect x="1362" y="212" width="28" height="22" fill="#f3f7fc" stroke="#fff" stroke-width="0.5"/>
<rect x="1362" y="190" width="28" height="22" fill="#f1f5fb" stroke="#fff" stroke-width="0.5"/>
<rect x="1362" y="168" width="28" height="22" fill="#eef4fa" stroke="#fff" stroke-width="0.5"/>
<rect x="1362" y="146" width="28" height="22" fill="#ecf2fa" stroke="#fff" stroke-width="0.5"/>
<rect x="1362" y="124" width="28" height="22" fill="#eaf1f9" stroke="#fff" stroke-width="0.5"/>
<rect x="1362" y="102" width="28" height="22" fill="#e8f0f9" stroke="#fff" stroke-width="0.5"/>
<rect x="1362" y="80" width="28" height="22" fill="#e6eff8" stroke="#fff" stroke-width="0.5"/>
<text class="lbl" x="1250" y="320" text-anchor="middle">pay_rate ∈ [0, 1]</text>
<text class="ptl" x="1600" y="72">tmax=80</text>
<rect x="1460" y="278" width="28" height="22" fill="#f9f1e9" stroke="#fff" stroke-width="0.5"/>
<rect x="1460" y="256" width="28" height="22" fill="#edf3fa" stroke="#fff" stroke-width="0.5"/>
<rect x="1460" y="234" width="28" height="22" fill="#d8e6f5" stroke="#fff" stroke-width="0.5"/>
<rect x="1460" y="212" width="28" height="22" fill="#cbddf2" stroke="#fff" stroke-width="0.5"/>
<rect x="1460" y="190" width="28" height="22" fill="#c2d7ef" stroke="#fff" stroke-width="0.5"/>
<rect x="1460" y="168" width="28" height="22" fill="#bcd3ee" stroke="#fff" stroke-width="0.5"/>
<rect x="1460" y="146" width="28" height="22" fill="#b6d0ec" stroke="#fff" stroke-width="0.5"/>
<rect x="1460" y="124" width="28" height="22" fill="#b2cdeb" stroke="#fff" stroke-width="0.5"/>
<rect x="1460" y="102" width="28" height="22" fill="#afcbeb" stroke="#fff" stroke-width="0.5"/>
<rect x="1460" y="80" width="28" height="22" fill="#acc9ea" stroke="#fff" stroke-width="0.5"/>
<rect x="1488" y="278" width="28" height="22" fill="#f3f7fc" stroke="#fff" stroke-width="0.5"/>
<rect x="1488" y="256" width="28" height="22" fill="#eaf1f9" stroke="#fff" stroke-width="0.5"/>
<rect x="1488" y="234" width="28" height="22" fill="#e6eff8" stroke="#fff" stroke-width="0.5"/>
<rect x="1488" y="212" width="28" height="22" fill="#e1ebf7" stroke="#fff" stroke-width="0.5"/>
<rect x="1488" y="190" width="28" height="22" fill="#b8d0ed" stroke="#fff" stroke-width="0.5"/>
<rect x="1488" y="168" width="28" height="22" fill="#9abde5" stroke="#fff" stroke-width="0.5"/>
<rect x="1488" y="146" width="28" height="22" fill="#83aee0" stroke="#fff" stroke-width="0.5"/>
<rect x="1488" y="124" width="28" height="22" fill="#72a3db" stroke="#fff" stroke-width="0.5"/>
<rect x="1488" y="102" width="28" height="22" fill="#639ad8" stroke="#fff" stroke-width="0.5"/>
<rect x="1488" y="80" width="28" height="22" fill="#5892d5" stroke="#fff" stroke-width="0.5"/>
<rect x="1516" y="278" width="28" height="22" fill="#f6f9fc" stroke="#fff" stroke-width="0.5"/>
<rect x="1516" y="256" width="28" height="22" fill="#ecf2fa" stroke="#fff" stroke-width="0.5"/>
<rect x="1516" y="234" width="28" height="22" fill="#e4edf8" stroke="#fff" stroke-width="0.5"/>
<rect x="1516" y="212" width="28" height="22" fill="#dfeaf7" stroke="#fff" stroke-width="0.5"/>
<rect x="1516" y="190" width="28" height="22" fill="#dae7f5" stroke="#fff" stroke-width="0.5"/>
<rect x="1516" y="168" width="28" height="22" fill="#d7e5f5" stroke="#fff" stroke-width="0.5"/>
<rect x="1516" y="146" width="28" height="22" fill="#d4e3f4" stroke="#fff" stroke-width="0.5"/>
<rect x="1516" y="124" width="28" height="22" fill="#d1e1f3" stroke="#fff" stroke-width="0.5"/>
<rect x="1516" y="102" width="28" height="22" fill="#cfe0f3" stroke="#fff" stroke-width="0.5"/>
<rect x="1516" y="80" width="28" height="22" fill="#cedff2" stroke="#fff" stroke-width="0.5"/>
<rect x="1544" y="278" width="28" height="22" fill="#f9fbfd" stroke="#fff" stroke-width="0.5"/>
<rect x="1544" y="256" width="28" height="22" fill="#f0f5fb" stroke="#fff" stroke-width="0.5"/>
<rect x="1544" y="234" width="28" height="22" fill="#e9f0f9" stroke="#fff" stroke-width="0.5"/>
<rect x="1544" y="212" width="28" height="22" fill="#e3edf8" stroke="#fff" stroke-width="0.5"/>
<rect x="1544" y="190" width="28" height="22" fill="#deeaf6" stroke="#fff" stroke-width="0.5"/>
<rect x="1544" y="168" width="28" height="22" fill="#dae7f5" stroke="#fff" stroke-width="0.5"/>
<rect x="1544" y="146" width="28" height="22" fill="#d7e5f5" stroke="#fff" stroke-width="0.5"/>
<rect x="1544" y="124" width="28" height="22" fill="#d4e3f4" stroke="#fff" stroke-width="0.5"/>
<rect x="1544" y="102" width="28" height="22" fill="#d2e1f3" stroke="#fff" stroke-width="0.5"/>
<rect x="1544" y="80" width="28" height="22" fill="#d0e0f3" stroke="#fff" stroke-width="0.5"/>
<rect x="1572" y="278" width="28" height="22" fill="#fafbfd" stroke="#fff" stroke-width="0.5"/>
<rect x="1572" y="256" width="28" height="22" fill="#f2f7fb" stroke="#fff" stroke-width="0.5"/>
<rect x="1572" y="234" width="28" height="22" fill="#ecf3fa" stroke="#fff" stroke-width="0.5"/>
<rect x="1572" y="212" width="28" height="22" fill="#e7eff9" stroke="#fff" stroke-width="0.5"/>
<rect x="1572" y="190" width="28" height="22" fill="#e3ecf8" stroke="#fff" stroke-width="0.5"/>
<rect x="1572" y="168" width="28" height="22" fill="#dfeaf7" stroke="#fff" stroke-width="0.5"/>
<rect x="1572" y="146" width="28" height="22" fill="#dbe8f6" stroke="#fff" stroke-width="0.5"/>
<rect x="1572" y="124" width="28" height="22" fill="#d8e6f5" stroke="#fff" stroke-width="0.5"/>
<rect x="1572" y="102" width="28" height="22" fill="#d6e4f4" stroke="#fff" stroke-width="0.5"/>
<rect x="1572" y="80" width="28" height="22" fill="#d3e2f4" stroke="#fff" stroke-width="0.5"/>
<rect x="1600" y="278" width="28" height="22" fill="#fbfcfe" stroke="#fff" stroke-width="0.5"/>
<rect x="1600" y="256" width="28" height="22" fill="#f4f8fc" stroke="#fff" stroke-width="0.5"/>
<rect x="1600" y="234" width="28" height="22" fill="#eff4fb" stroke="#fff" stroke-width="0.5"/>
<rect x="1600" y="212" width="28" height="22" fill="#eaf1f9" stroke="#fff" stroke-width="0.5"/>
<rect x="1600" y="190" width="28" height="22" fill="#e6eff8" stroke="#fff" stroke-width="0.5"/>
<rect x="1600" y="168" width="28" height="22" fill="#e2ecf7" stroke="#fff" stroke-width="0.5"/>
<rect x="1600" y="146" width="28" height="22" fill="#dfeaf7" stroke="#fff" stroke-width="0.5"/>
<rect x="1600" y="124" width="28" height="22" fill="#dce8f6" stroke="#fff" stroke-width="0.5"/>
<rect x="1600" y="102" width="28" height="22" fill="#dae6f5" stroke="#fff" stroke-width="0.5"/>
<rect x="1600" y="80" width="28" height="22" fill="#d7e5f5" stroke="#fff" stroke-width="0.5"/>
<rect x="1628" y="278" width="28" height="22" fill="#fbfcfe" stroke="#fff" stroke-width="0.5"/>
<rect x="1628" y="256" width="28" height="22" fill="#f6f9fc" stroke="#fff" stroke-width="0.5"/>
<rect x="1628" y="234" width="28" height="22" fill="#f1f6fb" stroke="#fff" stroke-width="0.5"/>
<rect x="1628" y="212" width="28" height="22" fill="#edf3fa" stroke="#fff" stroke-width="0.5"/>
<rect x="1628" y="190" width="28" height="22" fill="#e9f0f9" stroke="#fff" stroke-width="0.5"/>
<rect x="1628" y="168" width="28" height="22" fill="#e5eef8" stroke="#fff" stroke-width="0.5"/>
<rect x="1628" y="146" width="28" height="22" fill="#e2ecf7" stroke="#fff" stroke-width="0.5"/>
<rect x="1628" y="124" width="28" height="22" fill="#dfeaf7" stroke="#fff" stroke-width="0.5"/>
<rect x="1628" y="102" width="28" height="22" fill="#dde9f6" stroke="#fff" stroke-width="0.5"/>
<rect x="1628" y="80" width="28" height="22" fill="#dbe7f6" stroke="#fff" stroke-width="0.5"/>
<rect x="1656" y="278" width="28" height="22" fill="#fcfdfe" stroke="#fff" stroke-width="0.5"/>
<rect x="1656" y="256" width="28" height="22" fill="#f7fafd" stroke="#fff" stroke-width="0.5"/>
<rect x="1656" y="234" width="28" height="22" fill="#f3f7fc" stroke="#fff" stroke-width="0.5"/>
<rect x="1656" y="212" width="28" height="22" fill="#eff4fb" stroke="#fff" stroke-width="0.5"/>
<rect x="1656" y="190" width="28" height="22" fill="#ebf2fa" stroke="#fff" stroke-width="0.5"/>
<rect x="1656" y="168" width="28" height="22" fill="#e8f0f9" stroke="#fff" stroke-width="0.5"/>
<rect x="1656" y="146" width="28" height="22" fill="#e5eef8" stroke="#fff" stroke-width="0.5"/>
<rect x="1656" y="124" width="28" height="22" fill="#e2ecf7" stroke="#fff" stroke-width="0.5"/>
<rect x="1656" y="102" width="28" height="22" fill="#e0eaf7" stroke="#fff" stroke-width="0.5"/>
<rect x="1656" y="80" width="28" height="22" fill="#dde9f6" stroke="#fff" stroke-width="0.5"/>
<rect x="1684" y="278" width="28" height="22" fill="#fcfdfe" stroke="#fff" stroke-width="0.5"/>
<rect x="1684" y="256" width="28" height="22" fill="#f8fafd" stroke="#fff" stroke-width="0.5"/>
<rect x="1684" y="234" width="28" height="22" fill="#f4f8fc" stroke="#fff" stroke-width="0.5"/>
<rect x="1684" y="212" width="28" height="22" fill="#f0f5fb" stroke="#fff" stroke-width="0.5"/>
<rect x="1684" y="190" width="28" height="22" fill="#edf3fa" stroke="#fff" stroke-width="0.5"/>
<rect x="1684" y="168" width="28" height="22" fill="#eaf1f9" stroke="#fff" stroke-width="0.5"/>
<rect x="1684" y="146" width="28" height="22" fill="#e7eff9" stroke="#fff" stroke-width="0.5"/>
<rect x="1684" y="124" width="28" height="22" fill="#e5eef8" stroke="#fff" stroke-width="0.5"/>
<rect x="1684" y="102" width="28" height="22" fill="#e2ecf7" stroke="#fff" stroke-width="0.5"/>
<rect x="1684" y="80" width="28" height="22" fill="#e0ebf7" stroke="#fff" stroke-width="0.5"/>
<rect x="1712" y="278" width="28" height="22" fill="#fcfdfe" stroke="#fff" stroke-width="0.5"/>
<rect x="1712" y="256" width="28" height="22" fill="#f8fbfd" stroke="#fff" stroke-width="0.5"/>
<rect x="1712" y="234" width="28" height="22" fill="#f5f8fc" stroke="#fff" stroke-width="0.5"/>
<rect x="1712" y="212" width="28" height="22" fill="#f2f6fb" stroke="#fff" stroke-width="0.5"/>
<rect x="1712" y="190" width="28" height="22" fill="#eef4fa" stroke="#fff" stroke-width="0.5"/>
<rect x="1712" y="168" width="28" height="22" fill="#ecf2fa" stroke="#fff" stroke-width="0.5"/>
<rect x="1712" y="146" width="28" height="22" fill="#e9f1f9" stroke="#fff" stroke-width="0.5"/>
<rect x="1712" y="124" width="28" height="22" fill="#e7eff9" stroke="#fff" stroke-width="0.5"/>
<rect x="1712" y="102" width="28" height="22" fill="#e4edf8" stroke="#fff" stroke-width="0.5"/>
<rect x="1712" y="80" width="28" height="22" fill="#e2ecf7" stroke="#fff" stroke-width="0.5"/>
<text class="lbl" x="1600" y="320" text-anchor="middle">pay_rate ∈ [0, 1]</text>
<text class="lbl" x="60" y="340">Reference ratio = pay_rate / (born_base × (1 + born_ai_mult)). Default cell: pay_rate=0.15, born_ai_mult=1.5 → ratio=0.20. May 11 claim: regime flips at ratio≈1.5.</text>
<text class="lbl" x="60" y="356">Source: paper/scripts/grid_aidebt.py — deps-free, reproducible. aidebt prudence FAILs unresolved (see TODO VV step 6).</text>
</svg>